HIERARCHY
ROOT Hips
{
	OFFSET 0.00 0.00 0.00
	CHANNELS 6 Xposition Yposition Zposition Yrotation Xrotation Zrotation
	JOINT LHipJoint
	{
		OFFSET	0.0000	0.0000	0.0000
		CHANNELS 3 Yrotation Xrotation Zrotation
		JOINT LeftUpLeg
		{
			OFFSET	1.0138	-0.0809	-0.0827
			CHANNELS 3 Yrotation Xrotation Zrotation
			JOINT LeftLeg
			{
				OFFSET	0.4110	-3.9095	0.3245
				CHANNELS 3 Yrotation Xrotation Zrotation
				JOINT LeftFoot
				{
					OFFSET	0.3810	-4.0555	-0.1470
					CHANNELS 3 Yrotation Xrotation Zrotation
					JOINT LeftToeBase
					{
						OFFSET	0.1396	-0.4462	1.3079
						CHANNELS 3 Yrotation Xrotation Zrotation
						End Site
						{
							OFFSET 0.0161 -0.0248 0.1809
						}
					}
				}
			}
		}
	}
	JOINT LowerBack
	{
		OFFSET	0.0000	0.7977	-0.3873
		CHANNELS 3 Yrotation Xrotation Zrotation
		JOINT Spine
		{
			OFFSET	0.0000	1.4131	0.1715
			CHANNELS 3 Yrotation Xrotation Zrotation
			JOINT Spine1
			{
				OFFSET	0.0000	1.4392	-0.1032
				CHANNELS 3 Yrotation Xrotation Zrotation
				JOINT LeftShoulder
				{
					OFFSET	0.2274	1.0382	0.4032
					CHANNELS 3 Yrotation Xrotation Zrotation
					JOINT LeftArm
					{
						OFFSET	1.4730	-0.2267	-0.0231
						CHANNELS 3 Yrotation Xrotation Zrotation
						JOINT LeftForeArm
						{
							OFFSET	1.6131	-1.8059	0.0081
							CHANNELS 3 Yrotation Xrotation Zrotation
							JOINT LeftHand
							{
								OFFSET	1.2197	-1.2423	1.6317
								CHANNELS 3 Yrotation Xrotation Zrotation
								JOINT LThumb
								{
									OFFSET	0.0109	-0.0753	0.4387
									CHANNELS 3 Yrotation Xrotation Zrotation
									End Site
									{
										OFFSET -0.2090 -0.0868 0.2097
									}
								}
								JOINT LeftFingerBase
								{
									OFFSET	0.1071	-0.1567	0.2607
									CHANNELS 3 Yrotation Xrotation Zrotation
									JOINT LeftHandFinger1
									{
										OFFSET	0.1706	-0.2492	0.6830
										CHANNELS 3 Yrotation Xrotation Zrotation
										End Site
										{
											OFFSET 0.0335 -0.1507 0.2071
										}
									}
								}
							}
						}
					}
				}
				JOINT Neck
				{
					OFFSET	0.0000	1.7498	0.2381
					CHANNELS 3 Yrotation Xrotation Zrotation
					JOINT Neck1
					{
						OFFSET	0.0000	0.5043	0.1959
						CHANNELS 3 Yrotation Xrotation Zrotation
						JOINT Head
						{
							OFFSET	0.0000	0.5044	0.1959
							CHANNELS 3 Yrotation Xrotation Zrotation
							End Site
							{
								OFFSET 0.0000 1.4798 -0.0693
							}
						}
					}
				}
				JOINT RightShoulder
				{
					OFFSET	-0.2274	1.0382	0.4032
					CHANNELS 3 Yrotation Xrotation Zrotation
					JOINT RightArm
					{
						OFFSET	-1.4730	-0.2267	-0.0231
						CHANNELS 3 Yrotation Xrotation Zrotation
						JOINT RightForeArm
						{
							OFFSET	-1.6131	-1.8059	0.0081
							CHANNELS 3 Yrotation Xrotation Zrotation
							JOINT RightHand
							{
								OFFSET	-1.2197	-1.2423	1.6317
								CHANNELS 3 Yrotation Xrotation Zrotation
								JOINT RThumb
								{
									OFFSET	-0.0109	-0.0753	0.4387
									CHANNELS 3 Yrotation Xrotation Zrotation
									End Site
									{
										OFFSET 0.2090 -0.0868 0.2097
									}
								}
								JOINT RightFingerBase
								{
									OFFSET	-0.1071	-0.1567	0.2607
									CHANNELS 3 Yrotation Xrotation Zrotation
									JOINT RightHandFinger1
									{
										OFFSET	-0.1706	-0.2492	0.6830
										CHANNELS 3 Yrotation Xrotation Zrotation
										End Site
										{
											OFFSET -0.0335 -0.1507 0.2071
										}
									}
								}
							}
						}
					}
				}
			}
		}
	}
	JOINT RHipJoint
	{
		OFFSET	0.0000	0.0000	0.0000
		CHANNELS 3 Yrotation Xrotation Zrotation
		JOINT RightUpLeg
		{
			OFFSET	-1.0138	-0.0809	-0.0827
			CHANNELS 3 Yrotation Xrotation Zrotation
			JOINT RightLeg
			{
				OFFSET	-0.4110	-3.9095	0.3245
				CHANNELS 3 Yrotation Xrotation Zrotation
				JOINT RightFoot
				{
					OFFSET	-0.3810	-4.0555	-0.1470
					CHANNELS 3 Yrotation Xrotation Zrotation
					JOINT RightToeBase
					{
						OFFSET	-0.1396	-0.4462	1.3079
						CHANNELS 3 Yrotation Xrotation Zrotation
						End Site
						{
							OFFSET -0.0161 -0.0248 0.1809
						}
					}
				}
			}
		}
	}
}
MOTION
Frames: 15
Frame Time: 0.0333333
0.1170 8.0239 0.0509 -82.3888 6.6223 0.1847 0.0000 -0.0000 0.0000 1.4853 -22.7247 3.2949 142.1139 71.2943 138.9216 10.4208 0.9543 5.3170 -0.0000 -9.6153 -0.0000 0.0000 -0.0000 0.0000 2.6938 4.6748 -1.1227 5.3586 9.3285 -1.0537 3.6260 3.6420 -2.0789 -16.1174 18.2505 -7.2058 -20.1011 -19.9481 1.7952 -7.1126 8.1660 38.8608 20.4087 2.9915 12.8445 10.4386 6.8188 3.9812 -1.2841 -8.6973 1.2297 11.1287 -1.5126 -0.7730 8.5599 -1.7889 -6.5261 43.2429 -9.0977 -12.0917 24.5217 0.5061 7.0077 7.7170 23.7067 -7.5326 -2.7315 4.2273 1.9027 2.9678 16.4737 -21.6712 -12.1777 -0.5646 -2.7400 10.7091 16.8746 14.1439 3.4845 -6.0850 0.5082 0.0000 -0.0000 0.0000 -0.2418 -23.4131 10.3143 -12.0704 41.4465 -7.9454 1.3888 -26.0432 -6.8328 -0.0000 -2.9382 0.0000 
0.2149 8.0758 0.0451 -81.4815 7.3016 -0.2469 0.0000 -0.0000 0.0000 -0.7121 -37.3138 3.8636 150.1759 70.7184 145.4023 7.1541 -3.0593 5.7110 0.0000 -6.5585 -0.0000 0.0000 -0.0000 0.0000 3.5443 4.9044 -0.8220 7.0602 9.8013 -0.8160 6.4682 3.8999 -2.3152 -16.0672 24.4387 -9.0061 -17.0419 -17.0484 0.7681 -8.7316 11.7619 38.0674 25.6961 3.5732 12.3606 7.8177 8.9732 1.7497 -1.5033 -8.4305 1.0583 10.5157 -1.8859 -0.2748 7.9498 -2.1370 -6.0164 42.4168 -9.0675 -12.3151 27.1744 -0.1936 9.0866 11.5223 17.0282 -8.6563 0.2678 0.8753 1.9750 1.7639 19.3854 -21.3436 -11.9871 -0.6481 -2.5091 13.7471 17.1512 17.2640 3.6872 -5.8517 0.6701 0.0000 -0.0000 0.0000 -1.0276 -12.0023 12.0612 -9.4841 33.8094 -6.0655 1.1161 -30.3694 -7.6075 0.0000 -4.4792 -0.0000 
0.2091 8.2150 0.0952 -78.6504 7.6472 0.2400 0.0000 -0.0000 0.0000 -2.7013 -47.5561 1.1148 140.3180 78.0184 135.0446 7.2846 -6.3812 2.7865 -0.0000 -3.8104 0.0000 0.0000 -0.0000 0.0000 4.5570 4.6638 -0.5353 9.0983 9.5039 -1.9457 7.6999 4.0865 -2.9308 -13.3099 31.9986 -7.3243 -14.8479 -14.8779 0.1233 -9.0013 16.7797 36.1131 34.2223 3.7206 13.0107 5.1608 11.4198 -0.7275 -2.0507 -7.7707 0.6286 9.4218 -1.2747 0.1696 6.8700 -1.5299 -5.5558 39.6667 -10.2074 -11.5035 28.8760 -0.7104 10.3216 12.4001 12.6132 -9.9306 6.7826 -6.3670 1.5289 0.8254 20.9701 -21.2145 -11.9339 -0.6686 -2.4499 14.8499 15.2845 18.0855 3.9870 -5.5090 0.9101 0.0000 -0.0000 0.0000 -3.0575 10.7186 12.2860 -2.7872 5.7499 -1.8029 0.1522 -24.8423 -9.0035 0.0000 -3.4900 -0.0000 
0.1386 8.3155 0.1700 -75.2776 8.1488 2.4170 0.0000 -0.0000 0.0000 -1.9106 -53.0277 -6.2430 52.2667 82.2515 47.6494 10.5741 -9.2053 -1.5484 -0.0000 -2.3545 0.0000 0.0000 -0.0000 0.0000 6.0866 4.2405 -1.3206 11.8897 8.8267 -3.6679 7.4375 4.1389 -3.4373 -6.7042 38.7605 -1.7625 -12.3782 -12.3524 -0.5058 -8.3894 22.7283 33.0169 44.3317 3.2801 13.6689 2.7434 14.0395 -3.1648 -2.7392 -6.9535 0.0847 7.9882 -0.5476 0.4846 5.4500 -0.8189 -5.2045 35.6557 -11.5605 -10.1623 29.0899 -0.8644 10.8598 11.3666 9.6659 -11.0080 16.1384 -16.1633 -0.4931 0.2692 20.6637 -22.0636 -11.8848 -0.7203 -2.3354 15.4914 12.4472 18.0794 4.2379 -5.2242 1.1116 0.0000 -0.0000 0.0000 -7.2361 18.2567 10.4157 -1.8089 5.0544 -1.2542 -1.5459 -12.9791 -5.9755 -0.0000 -10.7707 0.0000 
0.0374 8.3898 0.2257 -72.8874 9.1930 4.1039 0.0000 -0.0000 0.0000 -0.5204 -53.7629 -13.1311 12.3313 65.6521 9.5181 13.3719 -10.6707 -5.6863 -0.0000 -2.2901 0.0000 0.0000 -0.0000 0.0000 7.8345 3.7409 -2.0707 15.1093 8.0173 -5.0979 6.2993 4.0930 -3.7154 4.1520 42.5967 7.1104 -10.4803 -10.3589 -0.9167 -7.4747 29.6253 28.9714 53.2572 2.5913 13.2987 0.3931 16.9216 -5.6520 -3.4190 -6.1608 -0.4558 6.5802 -0.1795 0.5930 4.0490 -0.4665 -5.0429 31.6178 -12.4319 -8.9230 27.9694 -0.6833 10.9266 9.3409 8.0336 -11.5004 27.9826 -26.6725 -5.0584 -0.5582 17.2163 -25.0091 -12.2219 -0.5361 -2.8105 15.7377 10.0419 17.6344 4.1990 -5.2682 1.0803 0.0000 -0.0000 0.0000 -9.8056 23.0992 9.3597 -1.3187 4.2245 -1.7591 -2.7999 6.5357 -1.6257 0.0000 -16.4736 0.0000 
-0.0751 8.4202 0.2511 -72.4668 10.1194 3.9635 0.0000 -0.0000 0.0000 -0.1244 -50.0342 -15.7705 5.8829 45.5258 5.2831 12.0753 -10.7360 -8.6187 -0.0000 -3.0173 0.0000 0.0000 -0.0000 0.0000 9.1421 3.3707 -2.2089 17.6167 7.3692 -5.2675 5.5119 4.0926 -3.9634 15.4656 42.7197 15.2584 -10.6889 -10.5801 -0.8747 -7.2454 37.0518 24.6577 56.8675 1.9998 12.3181 -1.7160 19.5432 -7.9042 -3.9459 -5.5558 -0.8772 5.7658 -0.2487 0.4814 3.2329 -0.5403 -5.1087 29.3551 -12.4669 -8.4919 26.5942 -0.4445 10.9000 7.6347 7.6728 -10.8857 39.7575 -34.6473 -11.2694 -2.4125 9.9155 -30.5097 -13.4051 0.1721 -4.6384 14.9730 9.8731 16.8176 3.6607 -5.8822 0.6489 0.0000 -0.0000 0.0000 -9.5941 26.8375 11.1659 -3.9654 5.5258 -4.0446 -3.4025 23.2441 3.7742 -0.0000 -19.2327 0.0000 
-0.1493 8.3627 0.2705 -73.6035 9.8803 2.5944 0.0000 -0.0000 0.0000 0.2789 -43.9506 -15.3865 4.1189 31.0057 4.8819 6.8477 -10.0623 -8.3856 0.0000 -3.8452 -0.0000 0.0000 -0.0000 0.0000 9.4159 3.3014 -1.8793 18.1868 7.0775 -4.1117 5.8006 4.2109 -4.4774 22.4310 40.9832 18.8468 -13.5213 -13.5316 -0.2276 -7.9166 43.7570 21.0219 52.5746 1.4036 12.0865 -2.7552 20.9944 -9.0572 -4.3425 -5.1059 -1.1957 5.8663 -0.3772 0.1673 3.3261 -0.6643 -5.4097 29.6685 -12.0659 -8.7850 26.0523 -0.3532 10.8527 6.7265 8.7638 -8.6391 46.3668 -38.1052 -15.2805 -4.9752 -0.6450 -37.2791 -15.4586 1.2769 -7.7527 12.4823 12.5301 15.2277 2.6790 -7.0244 -0.1324 0.0000 -0.0000 0.0000 -8.2659 26.3784 14.1931 -9.7428 17.1027 -8.5215 -5.9001 22.6337 7.6596 -0.0000 -12.8362 0.0000 
-0.1857 8.2549 0.3130 -74.6992 8.4490 1.5756 0.0000 -0.0000 0.0000 1.0106 -38.3274 -14.6937 4.1294 28.2453 5.0142 0.9673 -10.7751 -1.9479 -0.0000 -4.1616 0.0000 0.0000 -0.0000 0.0000 8.5752 3.4924 -1.3410 16.4630 7.2455 -2.6443 6.8219 4.3937 -5.1702 22.5694 39.2662 17.2150 -17.3546 -17.3517 0.8664 -7.4397 47.4914 19.7472 41.1275 1.3279 12.4675 -2.2583 20.9257 -8.6596 -4.7733 -4.6226 -1.5429 6.7031 -0.3363 -0.2760 4.1546 -0.6187 -5.8755 31.7015 -11.8219 -9.0807 26.4378 -0.3641 10.4596 6.3468 11.1758 -4.8560 43.7853 -36.8356 -13.6769 -7.4097 -12.3823 -42.7035 -17.6863 2.2760 -10.9951 8.3752 16.5889 12.5947 1.6066 -8.3053 -0.9774 0.0000 -0.0000 0.0000 -8.5764 21.1276 14.5461 -16.8437 38.1858 -15.5259 -10.8222 16.6457 10.1731 0.0000 -9.6584 0.0000 
-0.1594 8.1416 0.3913 -74.2542 7.0549 2.1525 0.0000 -0.0000 0.0000 0.9424 -34.0985 -15.1728 5.6494 34.1839 5.6947 -2.6477 -13.5169 8.5508 -0.0000 -3.5905 -0.0000 0.0000 -0.0000 0.0000 6.9535 3.8147 -1.0960 13.2497 7.7906 -2.0870 7.5103 4.4733 -5.5113 15.3550 37.0872 11.2836 -19.4288 -19.3241 1.5571 -3.0782 46.0298 22.1231 27.2169 2.0886 11.9804 -1.1812 20.1425 -7.6552 -5.3293 -4.0071 -1.9927 7.7526 -0.3707 -0.7344 5.1966 -0.6535 -6.3697 33.7547 -11.9436 -8.8595 26.7723 -0.2234 9.3582 6.0420 14.3796 -0.4697 33.8322 -30.9391 -7.9718 -9.5798 -22.8395 -44.1754 -19.1318 2.8302 -13.0505 3.7458 19.4895 9.3730 0.8822 -9.1900 -1.5428 0.0000 -0.0000 0.0000 -10.7317 12.9279 11.8751 -30.0996 59.0522 -28.0595 -14.1105 10.0956 11.4292 -0.0000 -8.3939 0.0000 
-0.0516 8.0524 0.5039 -72.2235 6.8740 4.1284 0.0000 -0.0000 0.0000 -1.2899 -28.6325 -15.4585 6.1772 38.8349 6.0823 -2.5333 -17.4033 7.6934 -0.0000 -3.0915 -0.0000 0.0000 -0.0000 0.0000 5.1912 4.1052 -1.4009 9.9103 8.3594 -2.7768 6.8073 4.2781 -5.0571 3.1712 32.5335 3.2371 -18.4742 -18.4250 1.2309 2.8738 39.5335 25.0533 17.2265 2.8053 10.7052 -0.9750 19.9028 -7.4587 -5.8141 -3.4779 -2.3867 8.5472 -0.7195 -1.1581 5.9848 -1.0100 -6.8185 34.6820 -12.2487 -8.2484 25.8792 0.2577 7.4784 5.3519 18.3813 3.3983 22.8178 -22.3907 -2.8246 -10.9271 -30.5204 -40.5487 -19.4900 2.9693 -13.5837 -0.3102 19.2543 6.1779 0.7878 -9.3065 -1.6162 0.0000 -0.0000 0.0000 -12.5421 1.2668 8.1633 -64.3253 72.6758 -60.8673 -12.6290 4.5267 10.3719 -0.0000 -7.8808 -0.0000 
0.1087 7.9953 0.5981 -69.6530 8.1218 6.4074 0.0000 -0.0000 0.0000 -3.9377 -23.0679 -16.2251 6.1371 39.1461 6.5925 -2.7292 -24.9551 6.6376 -0.0000 -1.8970 0.0000 0.0000 -0.0000 0.0000 3.8250 4.1787 -1.8859 7.3726 8.5083 -3.9002 4.3411 3.8491 -3.9103 -8.8016 25.2102 -3.5668 -16.0599 -16.0859 0.4698 5.3596 32.3962 24.1623 14.1399 2.9543 9.7780 -1.9930 20.3331 -8.3505 -5.8396 -3.4502 -2.4075 9.0093 -1.0688 -1.5861 6.4410 -1.3736 -7.2616 34.7421 -12.3863 -7.9045 23.4842 0.9531 5.0357 4.0554 24.2654 5.9490 16.1174 -16.1427 -0.4868 -9.1417 -35.5691 -32.9462 -19.2606 2.8991 -13.2840 -3.8808 15.4802 2.7320 1.3183 -8.6556 -1.2030 0.0000 -0.0000 0.0000 -11.9107 -14.1178 4.9932 -113.7183 72.3721 -109.3800 -6.6267 -0.5546 6.7136 0.0000 -8.1343 -0.0000 
0.2011 8.1125 0.6015 -70.4019 8.9912 7.0901 0.0000 -0.0000 0.0000 -3.3580 -10.3589 -14.9668 2.8982 28.2212 5.6285 -1.9780 -27.3755 4.1676 0.0000 -1.0601 -0.0000 0.0000 -0.0000 0.0000 2.8688 3.9733 -2.3199 5.5284 8.0470 -4.3646 0.8772 3.4095 -2.4943 -16.5290 17.0197 -7.2280 -14.7756 -14.8052 0.1034 2.7161 29.1518 19.3871 15.3751 2.6022 8.9018 -3.5439 20.3008 -9.5009 -5.2900 -4.0503 -1.9609 9.4517 -0.8831 -2.0751 6.8765 -1.2056 -7.7786 35.2375 -12.1032 -8.3968 20.6270 1.5551 2.3967 2.1073 32.6024 6.3235 15.5350 -15.5654 -0.3167 -3.5885 -39.4971 -23.0588 -19.0066 2.8087 -12.9267 -7.5003 9.4472 -1.3951 2.1673 -7.6313 -0.5367 0.0000 -0.0000 0.0000 -6.7492 -30.2754 2.7220 -127.7097 69.7609 -123.3893 -6.1988 -4.5154 3.6288 0.0000 -5.0372 0.0000 
0.2141 8.2328 0.5659 -72.3020 9.4339 6.4267 0.0000 -0.0000 0.0000 -0.2749 -0.6077 -12.6216 -0.6094 22.6947 5.1245 -0.6320 -19.6780 2.2188 -0.0005 -13.2047 -0.0371 0.0000 -0.0000 0.0000 1.8764 3.5453 -2.1819 3.6120 7.1374 -3.8426 -2.0352 3.1300 -1.0820 -19.1331 9.8044 -7.9818 -16.3570 -16.3786 0.5584 -3.4226 29.1267 14.3006 16.5752 1.8952 7.3420 -5.1903 19.1329 -10.3841 -4.5254 -4.9001 -1.3429 10.2444 -0.1574 -2.5958 7.6589 -0.4966 -8.3531 37.2772 -11.5009 -9.5699 18.8514 1.9243 -0.0118 -1.1803 41.6605 3.2768 18.8561 -18.7865 -1.3598 1.9337 -42.4735 -12.3803 -18.8938 2.7686 -12.7695 -10.8755 3.4842 -5.4324 2.8986 -6.7664 0.0417 0.0000 -0.0000 0.0000 -1.6554 -42.8461 0.4904 -120.8168 71.5384 -116.4590 -5.5164 -7.0446 1.9678 0.0000 -2.0634 0.0000 
0.1568 8.3513 0.4970 -75.3675 9.7967 4.8254 0.0000 -0.0000 0.0000 4.0002 10.0652 -8.4678 -5.1889 14.6038 4.9241 1.0277 -3.7314 -1.4864 6.0140 -40.6101 -18.7711 0.0000 -0.0000 0.0000 0.5636 3.0192 -1.9914 1.1275 6.0415 -2.8606 -3.2358 3.0290 0.0965 -17.6782 4.4163 -6.7221 -21.7465 -21.4428 2.4060 -9.1726 29.0456 13.6643 16.0931 1.0220 5.2729 -6.8824 17.4012 -11.1452 -3.9365 -5.5665 -0.8697 11.4723 0.6469 -3.0223 8.8778 0.2917 -8.8423 40.8833 -11.0046 -10.7306 18.9305 2.1604 -1.7893 -6.8051 48.5727 -3.7636 21.8509 -21.5361 -2.4461 4.1444 -42.1804 -4.0124 -18.9450 2.7929 -12.8545 -13.3200 -0.3641 -8.1225 3.2438 -6.3637 0.3162 0.0000 -0.0000 0.0000 2.4681 -50.7408 -0.3622 -83.0625 74.1911 -78.6822 -4.3871 -8.9475 1.3286 0.0000 -0.0397 0.0000 
0.0462 8.4235 0.4219 -78.7450 10.3323 3.0436 0.0000 -0.0000 0.0000 7.8626 18.9440 -4.0811 -6.4835 8.8909 6.3543 1.2151 9.3059 -4.6873 -0.0000 -13.5560 -0.0000 0.0000 -0.0000 0.0000 -0.9560 2.4798 -1.8538 -1.6698 4.9676 -2.2018 -2.7644 3.0289 0.5925 -14.0203 1.4081 -4.3079 -31.1160 -29.0345 6.5726 -11.0118 27.5807 19.5623 14.9560 0.3552 3.5818 -7.9193 16.0075 -11.5584 -3.5774 -5.9780 -0.5824 12.8479 1.2337 -3.2487 10.2559 0.8558 -9.1119 44.9550 -11.0297 -11.3359 20.3925 2.3448 -2.6511 -13.5021 51.7583 -12.5544 21.4564 -21.1827 -2.2954 4.3490 -36.5703 -1.7844 -19.2070 2.8869 -13.2239 -14.5040 -1.4471 -9.0292 3.2304 -6.3793 0.3055 0.0000 -0.0000 0.0000 4.2317 -53.6153 0.7856 -38.5976 65.1449 -34.1994 -2.7076 -10.7666 1.4976 0.0000 1.0908 -0.0000 
